<?xml version="1.0" encoding="UTF-8" standalone="no"?>
<svg
   xmlns:dc="http://purl.org/dc/elements/1.1/"
   xmlns:cc="http://creativecommons.org/ns#"
   xmlns:rdf="http://www.w3.org/1999/02/22-rdf-syntax-ns#"
   xmlns:svg="http://www.w3.org/2000/svg"
   xmlns="http://www.w3.org/2000/svg"
   xmlns:sodipodi="http://sodipodi.sourceforge.net/DTD/sodipodi-0.dtd"
   xmlns:inkscape="http://www.inkscape.org/namespaces/inkscape"
   width="280"
   height="80"
   viewBox="0 0 280 80"
   version="1.1"
   id="svg73"
   sodipodi:docname="about.svg"
   inkscape:version="0.92.4 (5da689c313, 2019-01-14)">
  <sodipodi:namedview
     pagecolor="#ffffff"
     bordercolor="#666666"
     borderopacity="1"
     objecttolerance="10"
     gridtolerance="10"
     guidetolerance="10"
     inkscape:pageopacity="0"
     inkscape:pageshadow="2"
     inkscape:window-width="1920"
     inkscape:window-height="1027"
     id="namedview55"
     showgrid="false"
     inkscape:zoom="2.7142857"
     inkscape:cx="61.74418"
     inkscape:cy="110.34992"
     inkscape:window-x="1272"
     inkscape:window-y="-8"
     inkscape:window-maximized="1"
     inkscape:current-layer="svg73" />
  <metadata
     id="metadata77">
    <rdf:RDF>
      <cc:Work
         rdf:about="">
        <dc:format>image/svg+xml</dc:format>
        <dc:type
           rdf:resource="http://purl.org/dc/dcmitype/StillImage" />
        <dc:title>Icon-256@2x</dc:title>
      </cc:Work>
    </rdf:RDF>
  </metadata>
  <!-- Generator: Sketch 48.2 (47327) - http://www.bohemiancoding.com/sketch -->
  <title
     id="title2">Icon-256@2x</title>
  <desc
     id="desc4">Created with Sketch.</desc>
  <rect
     style="fill:#eff0f1;fill-opacity:1;stroke-width:1.01010633"
     id="rect884"
     width="280"
     height="80"
     x="0"
     y="7.1054274e-15"
     ry="10" />
  <defs
     id="defs51">
    <linearGradient
       x1="161.28316"
       y1="7.5663333"
       x2="145.29044"
       y2="30.648863"
       id="linearGradient-1"
       gradientTransform="scale(1.0852396,0.9214555)"
       gradientUnits="userSpaceOnUse">
      <stop
         stop-color="#D446FF"
         offset="0%"
         id="stop6" />
      <stop
         stop-color="#A0D8FF"
         offset="100%"
         id="stop8" />
    </linearGradient>
    <linearGradient
       x1="157.61548"
       y1="21.212255"
       x2="163.49132"
       y2="42.908016"
       id="linearGradient-2"
       gradientTransform="scale(1.0714703,0.93329694)"
       gradientUnits="userSpaceOnUse">
      <stop
         stop-color="#3C3C3C"
         offset="0%"
         id="stop11" />
      <stop
         stop-color="#191919"
         offset="100%"
         id="stop13" />
    </linearGradient>
    <linearGradient
       x1="79.548843"
       y1="-14.46623"
       x2="-11.576564"
       y2="53.028095"
       id="linearGradient-3"
       gradientTransform="scale(1.0090862,0.99099563)"
       gradientUnits="userSpaceOnUse">
      <stop
         stop-color="#D446FF"
         offset="0%"
         id="stop16" />
      <stop
         stop-color="#A0D8FF"
         offset="100%"
         id="stop18" />
    </linearGradient>
    <linearGradient
       x1="20.77421"
       y1="34.174587"
       x2="40.200981"
       y2="23.636288"
       id="linearGradient-4"
       gradientTransform="scale(1.2049438,0.82991422)"
       gradientUnits="userSpaceOnUse">
      <stop
         stop-color="#FFFFFF"
         offset="0%"
         id="stop21" />
      <stop
         stop-color="#DADADA"
         offset="100%"
         id="stop23" />
    </linearGradient>
    <linearGradient
       x1="25.714579"
       y1="50.333694"
       x2="11.381782"
       y2="32.590153"
       id="linearGradient-5"
       gradientTransform="scale(1.114092,0.89759195)"
       gradientUnits="userSpaceOnUse">
      <stop
         stop-color="#FFFFFF"
         offset="0%"
         id="stop26" />
      <stop
         stop-color="#DADADA"
         offset="100%"
         id="stop28" />
    </linearGradient>
    <linearGradient
       x1="36.866966"
       y1="15.710848"
       x2="16.4951"
       y2="24.66194"
       id="linearGradient-6"
       gradientTransform="scale(1.3550117,0.73800101)"
       gradientUnits="userSpaceOnUse">
      <stop
         stop-color="#D0D0D0"
         offset="0%"
         id="stop31" />
      <stop
         stop-color="#FFFFFF"
         offset="100%"
         id="stop33" />
    </linearGradient>
    <linearGradient
       x1="16.490288"
       y1="39.958931"
       x2="-6.1390529"
       y2="67.829094"
       id="linearGradient-7"
       gradientTransform="scale(1.163757,0.85928589)"
       gradientUnits="userSpaceOnUse">
      <stop
         stop-color="#FFDC68"
         offset="0%"
         id="stop36" />
      <stop
         stop-color="#CE4300"
         offset="100%"
         id="stop38" />
    </linearGradient>
    <linearGradient
       x1="10.298144"
       y1="22.935205"
       x2="5.0843673"
       y2="24.525209"
       id="linearGradient-8"
       gradientTransform="scale(2.1466972,0.46583188)"
       gradientUnits="userSpaceOnUse">
      <stop
         stop-color="#FFDC68"
         offset="0%"
         id="stop41" />
      <stop
         stop-color="#CE4300"
         offset="100%"
         id="stop43" />
    </linearGradient>
    <linearGradient
       x1="13.558518"
       y1="38.66333"
       x2="-5.5350304"
       y2="67.982826"
       id="linearGradient-9"
       gradientTransform="scale(1.4995047,0.66688689)"
       gradientUnits="userSpaceOnUse">
      <stop
         stop-color="#FFDC68"
         offset="0%"
         id="stop46" />
      <stop
         stop-color="#CE4300"
         offset="100%"
         id="stop48" />
    </linearGradient>
  </defs>
  <g
     aria-label="KClient"
     style="font-style:normal;font-weight:normal;font-size:40px;line-height:1.25;font-family:sans-serif;letter-spacing:0px;word-spacing:0px;fill:#000000;fill-opacity:1;stroke:none"
     id="text59">
    <path
       d="m 75.079361,23.06044 h 4.734375 V 37.849503 L 95.516861,23.06044 h 6.093749 L 84.243423,39.37294 102.8528,58.052628 H 96.618423 L 79.813736,41.201065 v 16.851563 h -4.734375 z"
       style="font-size:48px"
       id="path4623" />
    <path
       d="m 130.15749,25.755753 v 4.992187 q -2.39063,-2.226562 -5.10938,-3.328125 -2.69531,-1.101562 -5.74219,-1.101562 -6,0 -9.1875,3.679687 -3.1875,3.65625 -3.1875,10.59375 0,6.914063 3.1875,10.59375 3.1875,3.65625 9.1875,3.65625 3.04688,0 5.74219,-1.101562 2.71875,-1.101563 5.10938,-3.328125 v 4.945312 q -2.48438,1.6875 -5.27344,2.53125 -2.76563,0.84375 -5.85938,0.84375 -7.94531,0 -12.51562,-4.851562 -4.57031,-4.875 -4.57031,-13.289063 0,-8.4375 4.57031,-13.289062 4.57031,-4.875 12.51562,-4.875 3.14063,0 5.90625,0.84375 2.78907,0.820312 5.22657,2.484375 z"
       style="font-size:48px"
       id="path4625" />
    <path
       d="m 137.32936,21.583878 h 4.3125 v 36.46875 h -4.3125 z"
       style="font-size:48px"
       id="path4627" />
    <path
       d="m 150.64186,31.802628 h 4.3125 v 26.25 h -4.3125 z m 0,-10.21875 h 4.3125 v 5.460937 h -4.3125 z"
       style="font-size:48px"
       id="path4629" />
    <path
       d="m 186.40749,43.849503 v 2.109375 h -19.82813 q 0.28125,4.453125 2.67188,6.796875 2.41406,2.320312 6.70312,2.320312 2.48438,0 4.80469,-0.609375 2.34375,-0.609375 4.64062,-1.828125 v 4.078125 q -2.32031,0.984375 -4.75781,1.5 -2.4375,0.515625 -4.94531,0.515625 -6.28125,0 -9.96094,-3.65625 -3.65625,-3.65625 -3.65625,-9.890625 0,-6.445312 3.46875,-10.21875 3.49219,-3.796875 9.39844,-3.796875 5.29687,0 8.36719,3.421875 3.09375,3.398438 3.09375,9.257813 z m -4.3125,-1.265625 q -0.0469,-3.539063 -1.99219,-5.648438 -1.92188,-2.109375 -5.10938,-2.109375 -3.60937,0 -5.78906,2.039063 -2.15625,2.039062 -2.48437,5.742187 z"
       style="font-size:48px"
       id="path4631" />
    <path
       d="m 215.30592,42.208878 v 15.84375 h -4.3125 V 42.349503 q 0,-3.726563 -1.45312,-5.578125 -1.45313,-1.851563 -4.35938,-1.851563 -3.49218,0 -5.50781,2.226563 -2.01562,2.226562 -2.01562,6.070312 v 14.835938 h -4.33594 v -26.25 h 4.33594 v 4.078125 q 1.54687,-2.367188 3.63281,-3.539063 2.10937,-1.171875 4.85156,-1.171875 4.52344,0 6.84375,2.8125 2.32031,2.789063 2.32031,8.226563 z"
       style="font-size:48px"
       id="path4633" />
    <path
       d="m 228.21999,24.349503 v 7.453125 h 8.88281 v 3.351562 h -8.88281 v 14.25 q 0,3.210938 0.86718,4.125 0.89063,0.914063 3.58594,0.914063 h 4.42969 v 3.609375 h -4.42969 q -4.99219,0 -6.89062,-1.851563 -1.89844,-1.875 -1.89844,-6.796875 v -14.25 h -3.16406 v -3.351562 h 3.16406 v -7.453125 z"
       style="font-size:48px"
       id="path4635" />
  </g>
  <path
     inkscape:connector-curvature="0"
     style="fill:#007fff;fill-opacity:1;stroke-width:1.69464469"
     d="M 39.151527,13.157894 A 27.114315,27.114315 0 0 0 12.037212,40.272209 27.114315,27.114315 0 0 0 39.151527,67.386525 27.114315,27.114315 0 0 0 63.512046,52.134723 h -5.825341 a 22.030381,22.030381 0 0 1 -2.843163,3.5614 L 40.773354,40.345026 54.403331,26.715051 H 45.930107 L 34.067593,38.577564 V 18.864081 a 22.030381,22.030381 0 0 1 5.083934,-0.622252 22.030381,22.030381 0 0 1 19.534754,11.862512 h 5.580411 A 27.114315,27.114315 0 0 0 39.151527,13.157894 Z m -11.862513,8.552661 v 35.508102 h 6.778579 V 47.050789 L 36.56984,44.548539 50.054184,59.37999 A 22.030381,22.030381 0 0 1 39.151527,62.30259 22.030381,22.030381 0 0 1 17.121147,40.272209 22.030381,22.030381 0 0 1 27.289014,21.710555 Z"
     id="path3769" />
</svg>
