<?xml version="1.0" encoding="UTF-8" standalone="no"?>
<svg
   xmlns:dc="http://purl.org/dc/elements/1.1/"
   xmlns:cc="http://creativecommons.org/ns#"
   xmlns:rdf="http://www.w3.org/1999/02/22-rdf-syntax-ns#"
   xmlns:svg="http://www.w3.org/2000/svg"
   xmlns="http://www.w3.org/2000/svg"
   xmlns:sodipodi="http://sodipodi.sourceforge.net/DTD/sodipodi-0.dtd"
   xmlns:inkscape="http://www.inkscape.org/namespaces/inkscape"
   width="256px"
   height="200px"
   viewBox="0 0 256 200"
   version="1.1"
   id="svg74"
   sodipodi:docname="startpage.svg"
   inkscape:version="0.92.4 (5da689c313, 2019-01-14)">
  <metadata
     id="metadata78">
    <rdf:RDF>
      <cc:Work
         rdf:about="">
        <dc:format>image/svg+xml</dc:format>
        <dc:type
           rdf:resource="http://purl.org/dc/dcmitype/StillImage" />
      </cc:Work>
    </rdf:RDF>
  </metadata>
  <sodipodi:namedview
     pagecolor="#ffffff"
     bordercolor="#666666"
     borderopacity="1"
     objecttolerance="10"
     gridtolerance="10"
     guidetolerance="10"
     inkscape:pageopacity="0"
     inkscape:pageshadow="2"
     inkscape:window-width="1920"
     inkscape:window-height="1027"
     id="namedview76"
     showgrid="false"
     inkscape:zoom="2.36"
     inkscape:cx="237.75908"
     inkscape:cy="61.057396"
     inkscape:window-x="1272"
     inkscape:window-y="-8"
     inkscape:window-maximized="1"
     inkscape:current-layer="svg74" />
  <!-- Generator: Sketch 48.2 (47327) - http://www.bohemiancoding.com/sketch -->
  <title
     id="title2">Icon-256</title>
  <desc
     id="desc4">Created with Sketch.</desc>
  <defs
     id="defs51">
    <linearGradient
       x1="77.1180071%"
       y1="12.3268731%"
       x2="3.36110907%"
       y2="118.781335%"
       id="linearGradient-1">
      <stop
         stop-color="#D446FF"
         offset="0%"
         id="stop6" />
      <stop
         stop-color="#A0D8FF"
         offset="100%"
         id="stop8" />
    </linearGradient>
    <linearGradient
       x1="50.7818321%"
       y1="-17.173918%"
       x2="76.3448843%"
       y2="77.2144178%"
       id="linearGradient-2">
      <stop
         stop-color="#3C3C3C"
         offset="0%"
         id="stop11" />
      <stop
         stop-color="#191919"
         offset="100%"
         id="stop13" />
    </linearGradient>
    <linearGradient
       x1="148.794275%"
       y1="-26.5643443%"
       x2="-21.1415871%"
       y2="99.3029307%"
       id="linearGradient-3">
      <stop
         stop-color="#D446FF"
         offset="0%"
         id="stop16" />
      <stop
         stop-color="#A0D8FF"
         offset="100%"
         id="stop18" />
    </linearGradient>
    <linearGradient
       x1="41.8083357%"
       y1="20.866645%"
       x2="95.5956597%"
       y2="-8.31097281%"
       id="linearGradient-4">
      <stop
         stop-color="#FFFFFF"
         offset="0%"
         id="stop21" />
      <stop
         stop-color="#DADADA"
         offset="100%"
         id="stop23" />
    </linearGradient>
    <linearGradient
       x1="52.2801818%"
       y1="70.5577815%"
       x2="2.53678786%"
       y2="8.97706744%"
       id="linearGradient-5">
      <stop
         stop-color="#FFFFFF"
         offset="0%"
         id="stop26" />
      <stop
         stop-color="#DADADA"
         offset="100%"
         id="stop28" />
    </linearGradient>
    <linearGradient
       x1="98.684398%"
       y1="12.9995489%"
       x2="35.2678133%"
       y2="40.863838%"
       id="linearGradient-6">
      <stop
         stop-color="#D0D0D0"
         offset="0%"
         id="stop31" />
      <stop
         stop-color="#FFFFFF"
         offset="100%"
         id="stop33" />
    </linearGradient>
    <linearGradient
       x1="34.2841787%"
       y1="31.6476155%"
       x2="-40.2132134%"
       y2="123.398162%"
       id="linearGradient-7">
      <stop
         stop-color="#FFDC68"
         offset="0%"
         id="stop36" />
      <stop
         stop-color="#CE4300"
         offset="100%"
         id="stop38" />
    </linearGradient>
    <linearGradient
       x1="95.7086811%"
       y1="2.33776624%"
       x2="-10.5474304%"
       y2="34.7418529%"
       id="linearGradient-8">
      <stop
         stop-color="#FFDC68"
         offset="0%"
         id="stop41" />
      <stop
         stop-color="#CE4300"
         offset="100%"
         id="stop43" />
    </linearGradient>
    <linearGradient
       x1="55.2222258%"
       y1="39.6484627%"
       x2="-63.5655829%"
       y2="222.055577%"
       id="linearGradient-9">
      <stop
         stop-color="#FFDC68"
         offset="0%"
         id="stop46" />
      <stop
         stop-color="#CE4300"
         offset="100%"
         id="stop48" />
    </linearGradient>
  </defs>
  <path
     inkscape:connector-curvature="0"
     style="fill:#007fff;fill-opacity:1;stroke-width:2.06540751"
     d="M 127.50806,23.733143 A 33.046518,33.046518 0 0 0 94.461524,56.77966 33.046518,33.046518 0 0 0 127.50806,89.826183 33.046518,33.046518 0 0 0 157.19829,71.237514 h -7.09984 a 26.850296,26.850296 0 0 1 -3.46521,4.340581 l -17.14852,-18.709686 16.612,-16.612007 H 135.76968 L 121.31184,54.714253 V 30.687758 a 26.850296,26.850296 0 0 1 6.19622,-0.758392 26.850296,26.850296 0 0 1 23.80866,14.457851 h 6.80131 A 33.046518,33.046518 0 0 0 127.50806,23.733143 Z m -14.45785,10.423854 v 43.276739 h 8.26163 V 65.041292 l 3.04969,-3.049705 16.43452,18.076346 A 26.850296,26.850296 0 0 1 127.50806,83.629954 26.850296,26.850296 0 0 1 100.65775,56.77966 26.850296,26.850296 0 0 1 113.05021,34.156997 Z"
     id="path3769" />
  <g
     transform="matrix(1.3321344,0,0,1.3321344,-76.466439,90.294743)"
     aria-label="KClient"
     style="font-style:normal;font-weight:normal;font-size:40px;line-height:1.25;font-family:sans-serif;letter-spacing:0px;word-spacing:0px;fill:#000000;fill-opacity:1;stroke:none"
     id="text59">
    <path
       inkscape:connector-curvature="0"
       d="m 75.079361,23.06044 h 4.734375 V 37.849503 L 95.516861,23.06044 h 6.093749 L 84.243423,39.37294 102.8528,58.052628 H 96.618423 L 79.813736,41.201065 v 16.851563 h -4.734375 z"
       style="font-size:48px"
       id="path4623" />
    <path
       inkscape:connector-curvature="0"
       d="m 130.15749,25.755753 v 4.992187 q -2.39063,-2.226562 -5.10938,-3.328125 -2.69531,-1.101562 -5.74219,-1.101562 -6,0 -9.1875,3.679687 -3.1875,3.65625 -3.1875,10.59375 0,6.914063 3.1875,10.59375 3.1875,3.65625 9.1875,3.65625 3.04688,0 5.74219,-1.101562 2.71875,-1.101563 5.10938,-3.328125 v 4.945312 q -2.48438,1.6875 -5.27344,2.53125 -2.76563,0.84375 -5.85938,0.84375 -7.94531,0 -12.51562,-4.851562 -4.57031,-4.875 -4.57031,-13.289063 0,-8.4375 4.57031,-13.289062 4.57031,-4.875 12.51562,-4.875 3.14063,0 5.90625,0.84375 2.78907,0.820312 5.22657,2.484375 z"
       style="font-size:48px"
       id="path4625" />
    <path
       inkscape:connector-curvature="0"
       d="m 137.32936,21.583878 h 4.3125 v 36.46875 h -4.3125 z"
       style="font-size:48px"
       id="path4627" />
    <path
       inkscape:connector-curvature="0"
       d="m 150.64186,31.802628 h 4.3125 v 26.25 h -4.3125 z m 0,-10.21875 h 4.3125 v 5.460937 h -4.3125 z"
       style="font-size:48px"
       id="path4629" />
    <path
       inkscape:connector-curvature="0"
       d="m 186.40749,43.849503 v 2.109375 h -19.82813 q 0.28125,4.453125 2.67188,6.796875 2.41406,2.320312 6.70312,2.320312 2.48438,0 4.80469,-0.609375 2.34375,-0.609375 4.64062,-1.828125 v 4.078125 q -2.32031,0.984375 -4.75781,1.5 -2.4375,0.515625 -4.94531,0.515625 -6.28125,0 -9.96094,-3.65625 -3.65625,-3.65625 -3.65625,-9.890625 0,-6.445312 3.46875,-10.21875 3.49219,-3.796875 9.39844,-3.796875 5.29687,0 8.36719,3.421875 3.09375,3.398438 3.09375,9.257813 z m -4.3125,-1.265625 q -0.0469,-3.539063 -1.99219,-5.648438 -1.92188,-2.109375 -5.10938,-2.109375 -3.60937,0 -5.78906,2.039063 -2.15625,2.039062 -2.48437,5.742187 z"
       style="font-size:48px"
       id="path4631" />
    <path
       inkscape:connector-curvature="0"
       d="m 215.30592,42.208878 v 15.84375 h -4.3125 V 42.349503 q 0,-3.726563 -1.45312,-5.578125 -1.45313,-1.851563 -4.35938,-1.851563 -3.49218,0 -5.50781,2.226563 -2.01562,2.226562 -2.01562,6.070312 v 14.835938 h -4.33594 v -26.25 h 4.33594 v 4.078125 q 1.54687,-2.367188 3.63281,-3.539063 2.10937,-1.171875 4.85156,-1.171875 4.52344,0 6.84375,2.8125 2.32031,2.789063 2.32031,8.226563 z"
       style="font-size:48px"
       id="path4633" />
    <path
       inkscape:connector-curvature="0"
       d="m 228.21999,24.349503 v 7.453125 h 8.88281 v 3.351562 h -8.88281 v 14.25 q 0,3.210938 0.86718,4.125 0.89063,0.914063 3.58594,0.914063 h 4.42969 v 3.609375 h -4.42969 q -4.99219,0 -6.89062,-1.851563 -1.89844,-1.875 -1.89844,-6.796875 v -14.25 h -3.16406 v -3.351562 h 3.16406 v -7.453125 z"
       style="font-size:48px"
       id="path4635" />
  </g>
</svg>
