<?xml version="1.0" encoding="UTF-8" standalone="no"?>
<svg
   xmlns:dc="http://purl.org/dc/elements/1.1/"
   xmlns:cc="http://creativecommons.org/ns#"
   xmlns:rdf="http://www.w3.org/1999/02/22-rdf-syntax-ns#"
   xmlns:svg="http://www.w3.org/2000/svg"
   xmlns="http://www.w3.org/2000/svg"
   xmlns:sodipodi="http://sodipodi.sourceforge.net/DTD/sodipodi-0.dtd"
   xmlns:inkscape="http://www.inkscape.org/namespaces/inkscape"
   width="222.74342"
   height="74.567619"
   viewBox="0 0 222.74342 74.567619"
   version="1.1"
   id="svg74"
   sodipodi:docname="startpage.svg"
   inkscape:version="0.92.4 (5da689c313, 2019-01-14)">
  <metadata
     id="metadata78">
    <rdf:RDF>
      <cc:Work
         rdf:about="">
        <dc:format>image/svg+xml</dc:format>
        <dc:type
           rdf:resource="http://purl.org/dc/dcmitype/StillImage" />
        <dc:title>Icon-256</dc:title>
      </cc:Work>
    </rdf:RDF>
  </metadata>
  <sodipodi:namedview
     pagecolor="#ffffff"
     bordercolor="#666666"
     borderopacity="1"
     objecttolerance="10"
     gridtolerance="10"
     guidetolerance="10"
     inkscape:pageopacity="0"
     inkscape:pageshadow="2"
     inkscape:window-width="1920"
     inkscape:window-height="1027"
     id="namedview76"
     showgrid="false"
     inkscape:zoom="2.36"
     inkscape:cx="66.75518"
     inkscape:cy="-48.641845"
     inkscape:window-x="1272"
     inkscape:window-y="-8"
     inkscape:window-maximized="1"
     inkscape:current-layer="svg74"
     fit-margin-top="0"
     fit-margin-left="0"
     fit-margin-right="0"
     fit-margin-bottom="0" />
  <!-- Generator: Sketch 48.2 (47327) - http://www.bohemiancoding.com/sketch -->
  <title
     id="title2">Icon-256</title>
  <desc
     id="desc4">Created with Sketch.</desc>
  <defs
     id="defs51">
    <linearGradient
       x1="0.77118003"
       y1="0.12326873"
       x2="0.033611089"
       y2="1.1878133"
       id="linearGradient-1">
      <stop
         stop-color="#D446FF"
         offset="0%"
         id="stop6" />
      <stop
         stop-color="#A0D8FF"
         offset="100%"
         id="stop8" />
    </linearGradient>
    <linearGradient
       x1="0.50781834"
       y1="-0.17173918"
       x2="0.76344889"
       y2="0.77214414"
       id="linearGradient-2">
      <stop
         stop-color="#3C3C3C"
         offset="0%"
         id="stop11" />
      <stop
         stop-color="#191919"
         offset="100%"
         id="stop13" />
    </linearGradient>
    <linearGradient
       x1="1.4879428"
       y1="-0.26564345"
       x2="-0.21141586"
       y2="0.99302936"
       id="linearGradient-3">
      <stop
         stop-color="#D446FF"
         offset="0%"
         id="stop16" />
      <stop
         stop-color="#A0D8FF"
         offset="100%"
         id="stop18" />
    </linearGradient>
    <linearGradient
       x1="0.41808334"
       y1="0.20866646"
       x2="0.95595658"
       y2="-0.083109729"
       id="linearGradient-4">
      <stop
         stop-color="#FFFFFF"
         offset="0%"
         id="stop21" />
      <stop
         stop-color="#DADADA"
         offset="100%"
         id="stop23" />
    </linearGradient>
    <linearGradient
       x1="0.52280182"
       y1="0.70557785"
       x2="0.025367878"
       y2="0.089770667"
       id="linearGradient-5">
      <stop
         stop-color="#FFFFFF"
         offset="0%"
         id="stop26" />
      <stop
         stop-color="#DADADA"
         offset="100%"
         id="stop28" />
    </linearGradient>
    <linearGradient
       x1="0.98684394"
       y1="0.1299955"
       x2="0.35267815"
       y2="0.40863839"
       id="linearGradient-6">
      <stop
         stop-color="#D0D0D0"
         offset="0%"
         id="stop31" />
      <stop
         stop-color="#FFFFFF"
         offset="100%"
         id="stop33" />
    </linearGradient>
    <linearGradient
       x1="0.3428418"
       y1="0.31647617"
       x2="-0.40213215"
       y2="1.2339816"
       id="linearGradient-7">
      <stop
         stop-color="#FFDC68"
         offset="0%"
         id="stop36" />
      <stop
         stop-color="#CE4300"
         offset="100%"
         id="stop38" />
    </linearGradient>
    <linearGradient
       x1="0.9570868"
       y1="0.023377663"
       x2="-0.1054743"
       y2="0.34741852"
       id="linearGradient-8">
      <stop
         stop-color="#FFDC68"
         offset="0%"
         id="stop41" />
      <stop
         stop-color="#CE4300"
         offset="100%"
         id="stop43" />
    </linearGradient>
    <linearGradient
       x1="0.55222225"
       y1="0.39648464"
       x2="-0.63565582"
       y2="2.2205558"
       id="linearGradient-9">
      <stop
         stop-color="#FFDC68"
         offset="0%"
         id="stop46" />
      <stop
         stop-color="#CE4300"
         offset="100%"
         id="stop48" />
    </linearGradient>
  </defs>
  <path
     inkscape:connector-curvature="0"
     style="fill:#007fff;fill-opacity:1;stroke-width:2.3302381"
     d="M 37.283826,0 A 37.283806,37.283806 0 0 0 0,37.283805 37.283806,37.283806 0 0 0 37.283826,74.567616 37.283806,37.283806 0 0 0 70.780994,53.595473 h -8.010195 a 30.293092,30.293092 0 0 1 -3.909526,4.897138 L 39.513937,37.383933 58.25596,18.641903 H 46.604767 L 30.293115,34.953567 V 7.846349 a 30.293092,30.293092 0 0 1 6.990711,-0.855634 30.293092,30.293092 0 0 1 26.861452,16.311664 h 7.673387 A 37.283806,37.283806 0 0 0 37.283826,0 Z M 20.972163,11.760421 v 48.825765 h 9.320952 V 46.604759 l 3.440727,-3.440744 18.541786,20.39413 A 30.293092,30.293092 0 0 1 37.283826,67.576895 30.293092,30.293092 0 0 1 6.990718,37.283805 30.293092,30.293092 0 0 1 20.972163,11.760421 Z"
     id="path3769" />
  <g
     transform="matrix(0.889459,0,0,0.889459,-72.378847,15.139349)"
     aria-label="KClient"
     style="font-style:normal;font-weight:normal;font-size:40px;line-height:1.25;font-family:sans-serif;letter-spacing:0px;word-spacing:0px;fill:#000000;fill-opacity:1;stroke:none"
     id="text59">
    <path
       inkscape:connector-curvature="0"
       d="m 169.7763,8.5712913 h 4.73437 V 23.360354 L 190.2138,8.5712913 h 6.09375 l -17.36719,16.3124997 18.60938,18.679688 h -6.23438 L 174.51067,26.711916 v 16.851563 h -4.73437 z"
       style="font-size:48px"
       id="path4623" />
    <path
       inkscape:connector-curvature="0"
       d="m 224.85443,11.266604 v 4.992187 q -2.39063,-2.226562 -5.10938,-3.328125 -2.69531,-1.101562 -5.74219,-1.101562 -6,0 -9.1875,3.679687 -3.1875,3.65625 -3.1875,10.59375 0,6.914063 3.1875,10.59375 3.1875,3.65625 9.1875,3.65625 3.04688,0 5.74219,-1.101562 2.71875,-1.101563 5.10938,-3.328125 v 4.945312 q -2.48438,1.6875 -5.27344,2.53125 -2.76563,0.84375 -5.85938,0.84375 -7.94531,0 -12.51562,-4.851562 -4.57031,-4.875 -4.57031,-13.289063 0,-8.4375 4.57031,-13.289062 4.57031,-4.8749997 12.51562,-4.8749997 3.14063,0 5.90625,0.84375 2.78907,0.820312 5.22657,2.4843747 z"
       style="font-size:48px"
       id="path4625" />
    <path
       inkscape:connector-curvature="0"
       d="m 232.0263,7.0947293 h 4.3125 V 43.563479 h -4.3125 z"
       style="font-size:48px"
       id="path4627" />
    <path
       inkscape:connector-curvature="0"
       d="m 245.3388,17.313479 h 4.3125 v 26.25 h -4.3125 z m 0,-10.2187497 h 4.3125 v 5.4609367 h -4.3125 z"
       style="font-size:48px"
       id="path4629" />
    <path
       inkscape:connector-curvature="0"
       d="m 281.10443,29.360354 v 2.109375 H 261.2763 q 0.28125,4.453125 2.67188,6.796875 2.41406,2.320312 6.70312,2.320312 2.48438,0 4.80469,-0.609375 2.34375,-0.609375 4.64062,-1.828125 v 4.078125 q -2.32031,0.984375 -4.75781,1.5 -2.4375,0.515625 -4.94531,0.515625 -6.28125,0 -9.96094,-3.65625 -3.65625,-3.65625 -3.65625,-9.890625 0,-6.445312 3.46875,-10.21875 3.49219,-3.796875 9.39844,-3.796875 5.29687,0 8.36719,3.421875 3.09375,3.398438 3.09375,9.257813 z m -4.3125,-1.265625 q -0.0469,-3.539063 -1.99219,-5.648438 -1.92188,-2.109375 -5.10938,-2.109375 -3.60937,0 -5.78906,2.039063 -2.15625,2.039062 -2.48437,5.742187 z"
       style="font-size:48px"
       id="path4631" />
    <path
       inkscape:connector-curvature="0"
       d="m 310.00286,27.719729 v 15.84375 h -4.3125 V 27.860354 q 0,-3.726563 -1.45312,-5.578125 -1.45313,-1.851563 -4.35938,-1.851563 -3.49218,0 -5.50781,2.226563 -2.01562,2.226562 -2.01562,6.070312 v 14.835938 h -4.33594 v -26.25 h 4.33594 v 4.078125 q 1.54687,-2.367188 3.63281,-3.539063 2.10937,-1.171875 4.85156,-1.171875 4.52344,0 6.84375,2.8125 2.32031,2.789063 2.32031,8.226563 z"
       style="font-size:48px"
       id="path4633" />
    <path
       inkscape:connector-curvature="0"
       d="m 322.91693,9.8603543 v 7.4531247 h 8.88281 v 3.351562 h -8.88281 v 14.25 q 0,3.210938 0.86718,4.125 0.89063,0.914063 3.58594,0.914063 h 4.42969 v 3.609375 h -4.42969 q -4.99219,0 -6.89062,-1.851563 -1.89844,-1.875 -1.89844,-6.796875 v -14.25 h -3.16406 v -3.351562 h 3.16406 V 9.8603543 Z"
       style="font-size:48px"
       id="path4635" />
  </g>
</svg>
