<?xml version="1.0" encoding="UTF-8" standalone="no"?>
<svg
   xmlns:dc="http://purl.org/dc/elements/1.1/"
   xmlns:cc="http://creativecommons.org/ns#"
   xmlns:rdf="http://www.w3.org/1999/02/22-rdf-syntax-ns#"
   xmlns:svg="http://www.w3.org/2000/svg"
   xmlns="http://www.w3.org/2000/svg"
   xmlns:sodipodi="http://sodipodi.sourceforge.net/DTD/sodipodi-0.dtd"
   xmlns:inkscape="http://www.inkscape.org/namespaces/inkscape"
   width="32px"
   height="32px"
   viewBox="0 0 32 32"
   version="1.1"
   id="svg54"
   sodipodi:docname="kclient.svg"
   inkscape:version="0.92.4 (5da689c313, 2019-01-14)">
  <metadata
     id="metadata58">
    <rdf:RDF>
      <cc:Work
         rdf:about="">
        <dc:format>image/svg+xml</dc:format>
        <dc:type
           rdf:resource="http://purl.org/dc/dcmitype/StillImage" />
      </cc:Work>
    </rdf:RDF>
  </metadata>
  <sodipodi:namedview
     pagecolor="#ffffff"
     bordercolor="#666666"
     borderopacity="1"
     objecttolerance="10"
     gridtolerance="10"
     guidetolerance="10"
     inkscape:pageopacity="0"
     inkscape:pageshadow="2"
     inkscape:window-width="1920"
     inkscape:window-height="1027"
     id="namedview56"
     showgrid="true"
     inkscape:zoom="16"
     inkscape:cx="24.27936"
     inkscape:cy="13.858787"
     inkscape:window-x="1272"
     inkscape:window-y="-8"
     inkscape:window-maximized="1"
     inkscape:current-layer="svg54">
    <inkscape:grid
       type="xygrid"
       id="grid3765" />
  </sodipodi:namedview>
  <!-- Generator: Sketch 48.2 (47327) - http://www.bohemiancoding.com/sketch -->
  <title
     id="title2">Icon-32</title>
  <desc
     id="desc4">Created with Sketch.</desc>
  <defs
     id="defs41">
    <linearGradient
       x1="148.794275%"
       y1="-26.5643443%"
       x2="-21.1415871%"
       y2="99.3029307%"
       id="linearGradient-1">
      <stop
         stop-color="#D446FF"
         offset="0%"
         id="stop6" />
      <stop
         stop-color="#A0D8FF"
         offset="100%"
         id="stop8" />
    </linearGradient>
    <linearGradient
       x1="41.8083357%"
       y1="20.866645%"
       x2="95.5956597%"
       y2="-8.31097281%"
       id="linearGradient-2">
      <stop
         stop-color="#FFFFFF"
         offset="0%"
         id="stop11" />
      <stop
         stop-color="#DADADA"
         offset="100%"
         id="stop13" />
    </linearGradient>
    <linearGradient
       x1="52.2801818%"
       y1="70.5577815%"
       x2="2.53678786%"
       y2="8.97706744%"
       id="linearGradient-3">
      <stop
         stop-color="#FFFFFF"
         offset="0%"
         id="stop16" />
      <stop
         stop-color="#DADADA"
         offset="100%"
         id="stop18" />
    </linearGradient>
    <linearGradient
       x1="98.684398%"
       y1="12.9995489%"
       x2="35.2678133%"
       y2="40.863838%"
       id="linearGradient-4">
      <stop
         stop-color="#D0D0D0"
         offset="0%"
         id="stop21" />
      <stop
         stop-color="#FFFFFF"
         offset="100%"
         id="stop23" />
    </linearGradient>
    <linearGradient
       x1="34.2841787%"
       y1="31.6476155%"
       x2="-40.2132134%"
       y2="123.398162%"
       id="linearGradient-5">
      <stop
         stop-color="#FFDC68"
         offset="0%"
         id="stop26" />
      <stop
         stop-color="#CE4300"
         offset="100%"
         id="stop28" />
    </linearGradient>
    <linearGradient
       x1="95.7086811%"
       y1="2.33776624%"
       x2="-10.5474304%"
       y2="34.7418529%"
       id="linearGradient-6">
      <stop
         stop-color="#FFDC68"
         offset="0%"
         id="stop31" />
      <stop
         stop-color="#CE4300"
         offset="100%"
         id="stop33" />
    </linearGradient>
    <linearGradient
       x1="55.2222258%"
       y1="39.6484627%"
       x2="-63.5655829%"
       y2="222.055577%"
       id="linearGradient-7">
      <stop
         stop-color="#FFDC68"
         offset="0%"
         id="stop36" />
      <stop
         stop-color="#CE4300"
         offset="100%"
         id="stop38" />
    </linearGradient>
  </defs>
  <path
     style="fill:#007fff;fill-opacity:1"
     d="M 16 0 A 16 16 0 0 0 0 16 A 16 16 0 0 0 16 32 A 16 16 0 0 0 30.375 23 L 26.9375 23 A 13 13 0 0 1 25.259766 25.101562 L 16.957031 16.042969 L 25 8 L 20 8 L 13 15 L 13 3.3671875 A 13 13 0 0 1 16 3 A 13 13 0 0 1 27.527344 10 L 30.820312 10 A 16 16 0 0 0 16 0 z M 9 5.046875 L 9 26 L 13 26 L 13 20 L 14.476562 18.523438 L 22.433594 27.275391 A 13 13 0 0 1 16 29 A 13 13 0 0 1 3 16 A 13 13 0 0 1 9 5.046875 z "
     id="path3769" />
</svg>
